<svg xmlns="http://www.w3.org/2000/svg" viewBox="0 0 96 96"><defs><linearGradient id="g" x1="0" y1="0" x2="1" y2="1"><stop stop-color="#f3dfba"/><stop offset="1" stop-color="#cf6f73"/></linearGradient></defs><rect width="96" height="96" rx="22" fill="#151011"/><g fill="none" stroke="url(#g)" stroke-width="5" stroke-linecap="round" stroke-linejoin="round"><path d="M31 49a12 12 0 1 0 0-24 12 12 0 0 0 0 24z"/><path d="M65 49a12 12 0 1 0 0-24 12 12 0 0 0 0 24z"/><path d="M12 82c2-16 10-25 19-25s17 9 19 25M46 82c2-16 10-25 19-25s17 9 19 25"/></g></svg>