<svg xmlns="http://www.w3.org/2000/svg" viewBox="0 0 64 64"><defs><linearGradient id="g" x1="0" y1="1" x2="1" y2="0"><stop stop-color="#67b7ad"/><stop offset="1" stop-color="#d7a05f"/></linearGradient></defs><rect width="64" height="64" rx="16" fill="#101514"/><path d="M14 23h36l-3 28H17l-3-28Z" fill="#171c1b" stroke="url(#g)" stroke-width="2.4" stroke-linejoin="round"/><path d="M24 23v-5c0-3 2-5 5-5h6c3 0 5 2 5 5v5" fill="none" stroke="#d3b07d" stroke-width="2.4"/><path d="M15 31c11 7 23 7 34 0" fill="none" stroke="#6fb6ad" stroke-width="2"/><circle cx="32" cy="35" r="4" fill="#d6a464"/><path d="m32 29 1.5 3 3.3.5-2.4 2.3.6 3.2-3-1.6-3 1.6.6-3.2-2.4-2.3 3.3-.5L32 29Z" fill="#f0c984"/></svg>